<svg width="99" height="123" viewBox="0 0 99 123" fill="none" xmlns="http://www.w3.org/2000/svg">
<path fill-rule="evenodd" clip-rule="evenodd" d="M27.9395 6.44534C30.3576 4.66332 33.4012 4.09998 35.0975 4.09998H63.9725C65.6691 4.09998 68.7125 4.66332 71.1306 6.44534C72.3784 7.36472 73.5054 8.64515 74.1307 10.3712C74.7581 12.1025 74.8196 14.1128 74.2169 16.3836L74.1794 16.524L66.2165 35.2699L80.6664 68.3138L80.2893 69.1424C77.7607 74.6971 68.1173 82 49.535 82C30.9527 82 21.3092 74.6971 18.7809 69.1424L18.4039 68.3138L32.8538 35.2699L24.8906 16.524L24.8533 16.3836C24.2504 14.1128 24.3119 12.1025 24.9394 10.3712C25.5649 8.64515 26.6919 7.36472 27.9395 6.44534ZM36.45 37.3315L22.9479 68.208C25.221 71.8676 33.0159 77.9 49.535 77.9C66.0544 77.9 73.849 71.8676 76.1223 68.208L62.6199 37.3315H36.45ZM62.6046 33.2315L70.2631 15.203C70.6505 13.6601 70.5378 12.5554 70.2499 11.7607C69.9517 10.9377 69.4026 10.276 68.6738 9.73883C67.1388 8.60768 65.026 8.19998 63.9725 8.19998H35.0975C34.0439 8.19998 31.9312 8.60768 30.3962 9.73883C29.6673 10.276 29.1185 10.9377 28.8202 11.7607C28.5322 12.5554 28.4197 13.6601 28.8071 15.203L36.4655 33.2315H62.6046Z" fill="#D68FD6"/>
<path fill-rule="evenodd" clip-rule="evenodd" d="M10.9652 72.2654C12.3754 68.7328 15.6132 66.01 19.9587 66.01V70.11C17.5518 70.11 15.6826 71.5651 14.7993 73.7775C13.9104 76.0042 14.0821 78.9266 15.9249 81.4924C17.6839 83.9414 20.2755 84.7499 22.6586 84.9012C23.844 84.9762 24.9196 84.8815 25.7012 84.7659C26.0893 84.7085 26.3977 84.647 26.602 84.6015C26.704 84.5789 26.7795 84.5609 26.8255 84.549L26.8718 84.5371C26.8736 84.5367 26.8749 84.5363 26.8759 84.5359C26.8756 84.5363 26.8765 84.5359 26.8759 84.5359L28.4674 84.0885L29.2504 85.5424C31.1087 88.9917 34.3163 90.6071 37.8218 90.7211C41.3867 90.8363 45.1883 89.3788 47.8828 86.7002L49.3414 85.2509L50.8 86.7002C53.4944 89.3788 57.296 90.8363 60.8608 90.7211C64.3663 90.6071 67.5739 88.9917 69.4322 85.5424L70.2155 84.0885L71.8053 84.5354C71.8045 84.535 71.8057 84.5359 71.8053 84.5354C71.8057 84.5354 71.809 84.5367 71.8094 84.5367C71.809 84.5367 71.8098 84.5367 71.8094 84.5367L71.8573 84.549C71.9031 84.5609 71.9785 84.5789 72.0808 84.6015C72.285 84.647 72.5936 84.7085 72.9813 84.7659C73.763 84.8815 74.8388 84.9762 76.0243 84.9012C78.4073 84.7499 80.9987 83.9414 82.758 81.4924C84.6006 78.9266 84.7722 76.0042 83.8833 73.7775C83.0001 71.5651 81.1311 70.11 78.7242 70.11V66.01C83.0694 66.01 86.3071 68.7328 87.7175 72.2654C89.122 75.7836 88.7739 80.173 86.1149 83.8745C83.3726 87.6929 79.3714 88.7974 76.2867 88.9926C74.7382 89.091 73.3616 88.9671 72.3741 88.8212C72.3366 88.8154 72.2999 88.8101 72.2632 88.8044C69.5411 92.7982 65.3187 94.6784 60.9953 94.8187C56.9029 94.9515 52.6711 93.5386 49.3414 90.8954C46.0117 93.5386 41.7798 94.9515 37.6873 94.8187C33.3639 94.6784 29.1417 92.7982 26.4194 88.8044C26.383 88.8101 26.3461 88.8154 26.3086 88.8212C25.3212 88.9671 23.9445 89.091 22.3961 88.9926C19.3116 88.7974 15.3102 87.6929 12.5676 83.8745C9.90888 80.173 9.56061 75.7836 10.9652 72.2654Z" fill="#D68FD6"/>
<path fill-rule="evenodd" clip-rule="evenodd" d="M39.0289 8.20001C39.0289 13.8609 43.646 18.45 49.3414 18.45C55.0368 18.45 59.6539 13.8609 59.6539 8.20001H63.7789C63.7789 16.1253 57.315 22.55 49.3414 22.55C41.3677 22.55 34.9039 16.1253 34.9039 8.20001H39.0289Z" fill="#D68FD6"/>
<path fill-rule="evenodd" clip-rule="evenodd" d="M34.9039 55.35H63.7789V65.6C63.7789 68.9964 61.0085 71.75 57.5914 71.75H41.0914C37.6741 71.75 34.9039 68.9964 34.9039 65.6V55.35ZM39.0289 59.45V65.6C39.0289 66.732 39.9523 67.65 41.0914 67.65H57.5914C58.7303 67.65 59.6539 66.732 59.6539 65.6V59.45H39.0289Z" fill="#D68FD6"/>
</svg>
