<svg width="80" height="81" viewBox="0 0 80 81" fill="none" xmlns="http://www.w3.org/2000/svg">
<path fill-rule="evenodd" clip-rule="evenodd" d="M34.7454 32.9707C31.7506 31.7018 28.4573 31 25 31C11.1929 31 0 42.1929 0 56C0 69.8071 11.1929 81 25 81C28.2416 81 31.3391 80.383 34.1815 79.2602C29.6764 72.9487 27 65.0592 27 56.5C27 47.5894 29.9006 39.4047 34.7454 32.9707Z" fill="#D68FD6"/>
<path fill-rule="evenodd" clip-rule="evenodd" d="M31.9707 46C30.7018 48.9948 30 52.2881 30 55.7454C30 69.5525 41.1929 80.7454 55 80.7454C68.8071 80.7454 80 69.5525 80 55.7454C80 52.5038 79.383 49.4063 78.2602 46.564C71.9487 51.069 64.0592 53.7454 55.5 53.7454C46.5894 53.7454 38.4047 50.8448 31.9707 46Z" fill="#D68FD6"/>
<path fill-rule="evenodd" clip-rule="evenodd" d="M45 48.0293C47.9948 49.2982 51.2881 50 54.7454 50C68.5525 50 79.7454 38.8071 79.7454 25C79.7454 11.1929 68.5525 0 54.7454 0C51.5038 0 48.4063 0.616951 45.564 1.73985C50.069 8.05127 52.7454 15.9408 52.7454 24.5C52.7454 33.4106 49.8448 41.5953 45 48.0293Z" fill="#D68FD6"/>
<path fill-rule="evenodd" clip-rule="evenodd" d="M48.0293 34.7454C49.2982 31.7506 50 28.4573 50 25C50 11.1929 38.8071 0 25 0C11.1929 0 0 11.1929 0 25C0 28.2416 0.616951 31.3391 1.73985 34.1815C8.05127 29.6764 15.9408 27 24.5 27C33.4106 27 41.5953 29.9006 48.0293 34.7454Z" fill="#D68FD6"/>
</svg>
