<svg width="79" height="91" viewBox="0 0 79 91" fill="none" xmlns="http://www.w3.org/2000/svg">
<path fill-rule="evenodd" clip-rule="evenodd" d="M17.7856 2.34536C20.2038 0.56334 23.2473 0 24.9437 0H53.8186C55.5152 0 58.5587 0.56334 60.9767 2.34536C62.2246 3.26475 63.3515 4.54518 63.9769 6.2712C64.6043 8.00254 64.6657 10.0128 64.0631 12.2836L64.0255 12.4241L56.0626 31.1699L70.5125 64.2138L70.1355 65.0424C67.6069 70.5971 57.9634 77.9 39.3811 77.9C20.7988 77.9 11.1553 70.5971 8.62702 65.0424L8.25 64.2138L22.6999 31.1699L14.7367 12.4241L14.6994 12.2836C14.0966 10.0128 14.158 8.00254 14.7855 6.2712C15.411 4.54518 16.538 3.26475 17.7856 2.34536ZM26.2961 33.2316L12.7941 64.108C15.0671 67.7677 22.862 73.8 39.3811 73.8C55.9005 73.8 63.6951 67.7677 65.9684 64.108L52.466 33.2316H26.2961ZM52.4508 29.1316L60.1093 11.103C60.4966 9.56013 60.384 8.45547 60.096 7.66073C59.7978 6.83773 59.2488 6.17603 58.5199 5.63885C56.985 4.5077 54.8722 4.1 53.8186 4.1H24.9437C23.8901 4.1 21.7774 4.5077 20.2424 5.63885C19.5134 6.17603 18.9646 6.83773 18.6663 7.66073C18.3783 8.45547 18.2659 9.56013 18.6532 11.103L26.3116 29.1316H52.4508Z" fill="#D68FD6"/>
<path fill-rule="evenodd" clip-rule="evenodd" d="M0.811298 68.1654C2.22155 64.6328 5.45935 61.91 9.80487 61.91V66.01C7.39797 66.01 5.52873 67.4651 4.64544 69.6775C3.75651 71.9042 3.92819 74.8267 5.77099 77.3925C7.53006 79.8414 10.1217 80.6499 12.5047 80.8012C13.6901 80.8762 14.7658 80.7815 15.5474 80.6659C15.9354 80.6085 16.2438 80.547 16.4481 80.5015C16.5502 80.4789 16.6257 80.4609 16.6717 80.449L16.7179 80.4371C16.7197 80.4367 16.7211 80.4363 16.722 80.4359C16.7218 80.4363 16.7227 80.4359 16.722 80.4359L18.3135 79.9886L19.0966 81.4424C20.9548 84.8918 24.1625 86.5072 27.6679 86.6211C31.2328 86.7364 35.0344 85.2788 37.7289 82.6003L39.1875 81.1509L40.6461 82.6003C43.3405 85.2788 47.1421 86.7364 50.707 86.6211C54.2124 86.5072 57.42 84.8918 59.2783 81.4424L60.0616 79.9886L61.6514 80.4355C61.6506 80.4351 61.6518 80.4359 61.6514 80.4355C61.6518 80.4355 61.6551 80.4367 61.6555 80.4367C61.6551 80.4367 61.656 80.4367 61.6555 80.4367L61.7034 80.449C61.7492 80.4609 61.8247 80.4789 61.927 80.5015C62.1312 80.547 62.4397 80.6085 62.8275 80.6659C63.6091 80.7815 64.6849 80.8762 65.8705 80.8012C68.2535 80.6499 70.8448 79.8414 72.6041 77.3925C74.4468 74.8267 74.6184 71.9042 73.7294 69.6775C72.8463 67.4651 70.9772 66.01 68.5703 66.01V61.91C72.9156 61.91 76.1533 64.6328 77.5636 68.1654C78.9682 71.6836 78.62 76.0731 75.961 79.7745C73.2187 83.5929 69.2175 84.6974 66.1328 84.8926C64.5843 84.991 63.2078 84.8672 62.2203 84.7212C62.1827 84.7155 62.146 84.7101 62.1093 84.7044C59.3872 88.6982 55.1649 90.5785 50.8414 90.7187C46.749 90.8515 42.5172 89.4387 39.1875 86.7954C35.8578 89.4387 31.626 90.8515 27.5335 90.7187C23.21 90.5785 18.9879 88.6982 16.2655 84.7044C16.2291 84.7101 16.1922 84.7155 16.1548 84.7212C15.1674 84.8672 13.7906 84.991 12.2422 84.8926C9.1577 84.6974 5.15633 83.5929 2.41378 79.7745C-0.244991 76.0731 -0.593265 71.6836 0.811298 68.1654Z" fill="#D68FD6"/>
<path fill-rule="evenodd" clip-rule="evenodd" d="M28.875 4.09998C28.875 9.76089 33.4921 14.35 39.1875 14.35C44.8829 14.35 49.5 9.76089 49.5 4.09998H53.625C53.625 12.0253 47.1611 18.45 39.1875 18.45C31.2139 18.45 24.75 12.0253 24.75 4.09998H28.875Z" fill="#D68FD6"/>
<path fill-rule="evenodd" clip-rule="evenodd" d="M24.75 51.25H53.625V61.5C53.625 64.8964 50.8547 67.65 47.4375 67.65H30.9375C27.5202 67.65 24.75 64.8964 24.75 61.5V51.25ZM28.875 55.35V61.5C28.875 62.632 29.7984 63.55 30.9375 63.55H47.4375C48.5764 63.55 49.5 62.632 49.5 61.5V55.35H28.875Z" fill="#D68FD6"/>
</svg>
